# xmcd
# Track frame offsets:
# 150
# 18590
# 37542
# 56812
# 75707
# 94700
# 114167
# 131210
#
# Disc length: 1969 seconds
# Revision: 0
# Processed by: cddbd v1.5.2PL0 Copyright (c) Steve Scherf et al.
# Submitted via: VisiTrax 2.11.3.279 - For more info visit www.synapsa.com
#
DISCID=5b07af08
DTITLE=Bobby Rush - A Man Can Give It But He Can't Take It
DYEAR=1999
DGENRE=Blues
TTITLE0=A Man Can Give It But He Can't Take It
TTITLE1=Ain't That Good Lovin
TTITLE2=Bad Mother For Ya
TTITLE3=I Am Tired
TTITLE4=Hurt Me So Bad
TTITLE5=Nine Below Zero
TTITLE6=Hoy Hoy
TTITLE7=Playin' Me Crazy
EXTD=
EXTT0=
EXTT1=
EXTT2=
EXTT3=
EXTT4=
EXTT5=
EXTT6=
EXTT7=
PLAYORDER=
